<svg xmlns="http://www.w3.org/2000/svg" viewBox="0 0 400 120" width="400" height="120">
  <!-- Blue butterfly -->
  <g transform="translate(320, 20)">
    <path d="M20 25 C15 15, 5 15, 0 25 C5 35, 15 35, 20 25 Z" fill="#1e40af" opacity="0.9"/>
    <path d="M20 25 C25 15, 35 15, 40 25 C35 35, 25 35, 20 25 Z" fill="#2563eb" opacity="0.9"/>
    <path d="M20 25 C15 35, 5 35, 0 45 C5 55, 15 55, 20 45 Z" fill="#3b82f6" opacity="0.8"/>
    <path d="M20 25 C25 35, 35 35, 40 45 C35 55, 25 55, 20 45 Z" fill="#60a5fa" opacity="0.8"/>
    <line x1="20" y1="15" x2="20" y2="55" stroke="#1e40af" stroke-width="2"/>
  </g>
  
  <!-- Main "Calista" text in red -->
  <text x="20" y="55" font-family="Arial, sans-serif" font-size="48" font-weight="bold" fill="#dc2626">
    Calista
  </text>
  
  <!-- Tagline -->
  <line x1="20" y1="75" x2="120" y2="75" stroke="#374151" stroke-width="2"/>
  <text x="140" y="78" font-family="Arial, sans-serif" font-size="16" fill="#374151">live life in colours</text>
  <line x1="280" y1="75" x2="380" y2="75" stroke="#374151" stroke-width="2"/>
</svg>